<svg xmlns="http://www.w3.org/2000/svg" xmlns:xlink="http://www.w3.org/1999/xlink" viewBox="0,0,256,256" width="144px" height="144px"><g fill="none" fill-rule="nonzero" stroke="none" stroke-width="1" stroke-linecap="butt" stroke-linejoin="miter" stroke-miterlimit="10" stroke-dasharray="" stroke-dashoffset="0" font-family="none" font-weight="none" font-size="none" text-anchor="none" style="mix-blend-mode: normal"><g transform="scale(5.33333,5.33333)"><path d="M36,12v5h1v25c0,0.55 -0.45,1 -1,1h-25c-2.76,0 -5,-2.24 -5,-5v-28c0,-2.76 2.24,-5 5,-5h21c2.76,0 5,2.24 5,5v2z" fill="#f73797"></path><path d="M43,22v1h-1v16c0,1.66 -1.34,3 -3,3v1h-22c-2.76,0 -5,-2.24 -5,-5v-16c0,-2.76 2.24,-5 5,-5h21c2.76,0 5,2.24 5,5z" fill="#f73797"></path><path d="M29,22h-17c-0.553,0 -1,-0.448 -1,-1c0,-0.552 0.447,-1 1,-1h17c0.553,0 1,0.448 1,1c0,0.552 -0.447,1 -1,1z" fill="#324561"></path><path d="M29,16h-17c-0.553,0 -1,-0.448 -1,-1c0,-0.552 0.447,-1 1,-1h17c0.553,0 1,0.448 1,1c0,0.552 -0.447,1 -1,1z" fill="#324561"></path><path d="M29,35h-5c-0.553,0 -1,-0.448 -1,-1c0,-0.552 0.447,-1 1,-1h5c0.553,0 1,0.448 1,1c0,0.552 -0.447,1 -1,1z" fill="#324561"></path><path d="M29,29h-5c-0.553,0 -1,-0.448 -1,-1c0,-0.552 0.447,-1 1,-1h5c0.553,0 1,0.448 1,1c0,0.552 -0.447,1 -1,1z" fill="#324561"></path><path d="M18,36h-5c-1.103,0 -2,-0.961 -2,-2.143v-5.714c0,-1.182 0.897,-2.143 2,-2.143h5c1.103,0 2,0.961 2,2.143v5.714c0,1.182 -0.897,2.143 -2,2.143zM13.009,28c0.025,0.004 -0.009,0.054 -0.009,0.143v5.714c0,0.098 0.041,0.148 0.052,0.156l4.939,-0.013c-0.025,-0.004 0.009,-0.054 0.009,-0.143v-5.714c0,-0.098 -0.041,-0.148 -0.052,-0.156z" fill="#324561"></path><path d="M39,43c-2.206,0 -4,-1.794 -4,-4v-27c0,-0.552 0.447,-1 1,-1c0.553,0 1,0.448 1,1v27c0,1.103 0.897,2 2,2c1.103,0 2,-0.897 2,-2v-16c0,-0.552 0.447,-1 1,-1c0.553,0 1,0.448 1,1v16c0,2.206 -1.794,4 -4,4z" fill="#324561"></path></g></g><g fill="#000000" fill-rule="nonzero" stroke="none" stroke-width="1" stroke-linecap="butt" stroke-linejoin="miter" stroke-miterlimit="10" stroke-dasharray="" stroke-dashoffset="0" font-family="none" font-weight="none" font-size="none" text-anchor="none" style="mix-blend-mode: normal"><g><path d="M46.28,66.365h-2.56v-0.78c0.62667,-0.28 1.35667,-0.49333 2.19,-0.64v0v-15.81c-0.40667,-0.08667 -0.79667,-0.19 -1.17,-0.31c-0.37333,-0.11333 -0.71333,-0.23333 -1.02,-0.36v0v-0.77h2.72c0.30667,0 0.66333,-0.01 1.07,-0.03c0.40667,-0.01333 0.83,-0.03333 1.27,-0.06c0.43333,-0.02667 0.85,-0.05333 1.25,-0.08c0.4,-0.02667 0.73333,-0.04 1,-0.04v0c3.02,0 5.34333,0.80667 6.97,2.42c1.62667,1.62 2.44,3.91333 2.44,6.88v0c0,1.40667 -0.2,2.71 -0.6,3.91c-0.4,1.2 -1.00667,2.23667 -1.82,3.11c-0.82,0.86667 -1.85667,1.55 -3.11,2.05c-1.25333,0.5 -2.73333,0.75 -4.44,0.75v0c-0.26667,0 -0.57,-0.01333 -0.91,-0.04c-0.33333,-0.02667 -0.68667,-0.05333 -1.06,-0.08c-0.37333,-0.02667 -0.75333,-0.05333 -1.14,-0.08c-0.38,-0.02667 -0.74,-0.04 -1.08,-0.04zM50.66,48.865v0c-0.46667,0 -0.91333,0.00667 -1.34,0.02c-0.42667,0.00667 -0.76333,0.03667 -1.01,0.09v0v16.16c0.08667,0.02 0.24667,0.03333 0.48,0.04c0.23333,0.00667 0.48333,0.01667 0.75,0.03c0.26667,0.00667 0.52,0.01 0.76,0.01c0.24,0 0.41333,0 0.52,0v0c1.22667,0 2.26667,-0.23 3.12,-0.69c0.85333,-0.46667 1.55,-1.08667 2.09,-1.86c0.54,-0.77333 0.93667,-1.66667 1.19,-2.68c0.24667,-1.01333 0.37,-2.08 0.37,-3.2v0c0,-0.86667 -0.12,-1.76667 -0.36,-2.7c-0.24,-0.93333 -0.63,-1.78667 -1.17,-2.56c-0.54667,-0.77333 -1.26333,-1.41 -2.15,-1.91c-0.88667,-0.5 -1.97,-0.75 -3.25,-0.75zM72.76,62.865v0c0,0.39333 0.01,0.73333 0.03,1.02c0.02,0.28 0.03667,0.58 0.05,0.9v0l1.84,0.27v0.56c-0.44,0.23333 -0.93333,0.43667 -1.48,0.61c-0.54,0.18 -1.06,0.31333 -1.56,0.4v0h-0.66c-0.18,-0.40667 -0.28667,-0.85333 -0.32,-1.34c-0.04,-0.49333 -0.06667,-1.03333 -0.08,-1.62v0h-0.14c-0.06667,0.36 -0.20333,0.72 -0.41,1.08c-0.20667,0.36667 -0.47333,0.69333 -0.8,0.98c-0.32667,0.28 -0.71333,0.51 -1.16,0.69c-0.44667,0.18 -0.95333,0.27 -1.52,0.27v0c-1.08667,0 -1.97,-0.33 -2.65,-0.99c-0.68667,-0.66 -1.03,-1.52333 -1.03,-2.59v0c0,-0.81333 0.16333,-1.48333 0.49,-2.01c0.33333,-0.52667 0.82,-0.94 1.46,-1.24c0.64,-0.3 1.43,-0.51667 2.37,-0.65c0.94,-0.13333 2.03333,-0.23667 3.28,-0.31v0c0.07333,-0.76667 0.09667,-1.45667 0.07,-2.07c-0.02667,-0.61333 -0.12667,-1.13667 -0.3,-1.57c-0.16667,-0.43333 -0.41333,-0.77 -0.74,-1.01c-0.33333,-0.24 -0.76667,-0.36 -1.3,-0.36v0c-0.24667,0 -0.52667,0.01333 -0.84,0.04c-0.30667,0.02667 -0.61333,0.1 -0.92,0.22v0l-1.25,3.2h-0.69c-0.18,-0.53333 -0.33667,-1.08333 -0.47,-1.65c-0.13333,-0.56667 -0.21667,-1.12667 -0.25,-1.68v0c0.67333,-0.40667 1.42333,-0.72667 2.25,-0.96c0.82667,-0.23333 1.74667,-0.35 2.76,-0.35v0c0.90667,0 1.63,0.13 2.17,0.39c0.54667,0.26 0.96,0.59333 1.24,1c0.28667,0.40667 0.47333,0.86 0.56,1.36c0.09333,0.5 0.14,0.99667 0.14,1.49v0c0,1.06667 -0.02333,2.09333 -0.07,3.08c-0.04667,0.98667 -0.07,1.93333 -0.07,2.84zM67.62,65.025v0c0.44,0 0.83,-0.08667 1.17,-0.26c0.34,-0.18 0.62333,-0.39333 0.85,-0.64c0.23333,-0.25333 0.42,-0.50667 0.56,-0.76c0.14667,-0.26 0.24667,-0.48 0.3,-0.66v0v-2.8c-1.03333,0 -1.88,0.05333 -2.54,0.16c-0.65333,0.10667 -1.16667,0.27667 -1.54,0.51c-0.37333,0.23333 -0.63333,0.52333 -0.78,0.87c-0.14,0.34667 -0.21,0.74 -0.21,1.18v0c0,0.76667 0.19667,1.36 0.59,1.78c0.38667,0.41333 0.92,0.62 1.6,0.62zM82.31,65.695v0.67h-5.92v-0.67c0.26667,-0.14 0.54333,-0.26 0.83,-0.36c0.28,-0.1 0.59,-0.19333 0.93,-0.28v0v-10.48l-1.76,-0.21v-0.7c0.51333,-0.21333 1.07333,-0.4 1.68,-0.56c0.60667,-0.16 1.21,-0.29333 1.81,-0.4v0h0.67v12.35c0.35333,0.08667 0.67333,0.18 0.96,0.28c0.28667,0.1 0.55333,0.22 0.8,0.36zM77.64,48.495v0c0,-0.48 0.15667,-0.86333 0.47,-1.15c0.31333,-0.28 0.72667,-0.42 1.24,-0.42v0c0.51333,0 0.92333,0.14 1.23,0.42c0.3,0.28667 0.45,0.67 0.45,1.15v0c0,0.48 -0.15,0.85667 -0.45,1.13c-0.30667,0.28 -0.71667,0.42 -1.23,0.42v0c-0.51333,0 -0.92667,-0.14 -1.24,-0.42c-0.31333,-0.27333 -0.47,-0.65 -0.47,-1.13zM90.34,65.695v0.67h-5.92v-0.67c0.58667,-0.28667 1.17333,-0.5 1.76,-0.64v0v-16.88l-2.03,-0.21v-0.7c0.46,-0.21333 1.03667,-0.4 1.73,-0.56c0.69333,-0.16 1.37,-0.29333 2.03,-0.4v0h0.67v18.75c0.58667,0.14 1.17333,0.35333 1.76,0.64zM98.02,66.365l-5.55,-12c-0.26667,-0.07333 -0.51,-0.16333 -0.73,-0.27c-0.22667,-0.10667 -0.45333,-0.23 -0.68,-0.37v0v-0.7h5.57v0.67c-0.37333,0.24667 -0.88,0.47 -1.52,0.67v0l3.41,7.89l0.51,1.65h0.05l0.4,-1.68l2.54,-7.86c-0.53333,-0.10667 -1.02333,-0.32 -1.47,-0.64v0v-0.7h4.56v0.7c-0.37333,0.24667 -0.88,0.46 -1.52,0.64v0l-4.16,12c-0.42667,1.13333 -0.83,2.05333 -1.21,2.76c-0.38667,0.7 -0.77,1.25333 -1.15,1.66c-0.38,0.41333 -0.77,0.71333 -1.17,0.9c-0.4,0.18667 -0.83333,0.32333 -1.3,0.41v0c-0.19333,-0.34 -0.36667,-0.71333 -0.52,-1.12c-0.14667,-0.40667 -0.27333,-0.79667 -0.38,-1.17v0l0.34,-0.64h2.78c0.10667,-0.14667 0.2,-0.28667 0.28,-0.42c0.08,-0.13333 0.16333,-0.29667 0.25,-0.49c0.08667,-0.19333 0.18333,-0.44333 0.29,-0.75c0.10667,-0.3 0.23333,-0.68 0.38,-1.14zM124.28,48.465v-0.77h5.76v0.77c-0.74667,0.5 -1.47333,0.85667 -2.18,1.07v0v17.15h-1.52l-9.68,-14.7l-1.04,-2.08h-0.08l0.24,2.08v12.67c0.72667,0.19333 1.41,0.50333 2.05,0.93v0v0.78h-5.76v-0.78c0.32,-0.19333 0.66333,-0.36667 1.03,-0.52c0.36,-0.14667 0.74667,-0.28333 1.16,-0.41v0v-15.28c-0.36,-0.14 -0.71333,-0.29 -1.06,-0.45c-0.34667,-0.16 -0.67,-0.32 -0.97,-0.48v0v-0.75h4.51l8.4,12.67l1.22,2.29h0.11l-0.13,-2.29v-10.83c-0.37333,-0.16 -0.73333,-0.33 -1.08,-0.51c-0.34667,-0.17333 -0.67333,-0.36 -0.98,-0.56zM142.34,64.065l0.37,0.43c-0.14,0.3 -0.36333,0.58333 -0.67,0.85c-0.3,0.26667 -0.64667,0.5 -1.04,0.7c-0.38667,0.19333 -0.81333,0.34667 -1.28,0.46c-0.46,0.12 -0.93,0.18 -1.41,0.18v0c-1.04667,0 -1.97,-0.16667 -2.77,-0.5c-0.8,-0.32667 -1.46667,-0.79667 -2,-1.41c-0.53333,-0.61333 -0.94,-1.34667 -1.22,-2.2c-0.27333,-0.85333 -0.41,-1.81333 -0.41,-2.88v0c0,-2.27333 0.52333,-4.00667 1.57,-5.2c1.05333,-1.19333 2.54,-1.79 4.46,-1.79v0c0.62,0 1.23333,0.08667 1.84,0.26c0.6,0.16667 1.13667,0.44667 1.61,0.84c0.47333,0.38667 0.85667,0.90667 1.15,1.56c0.29333,0.64667 0.44,1.45 0.44,2.41v0c0,0.3 -0.01333,0.60667 -0.04,0.92c-0.02667,0.31333 -0.07667,0.64667 -0.15,1v0h-8.32c0,0.74667 0.09333,1.44333 0.28,2.09c0.18667,0.65333 0.46667,1.22 0.84,1.7c0.37333,0.48 0.84333,0.85667 1.41,1.13c0.57333,0.27333 1.24,0.41 2,0.41v0c0.62667,0 1.26,-0.08667 1.9,-0.26c0.64,-0.18 1.12,-0.41333 1.44,-0.7zM137.83,53.885v0c-1.01333,0 -1.78667,0.34 -2.32,1.02c-0.53333,0.68667 -0.85333,1.89333 -0.96,3.62v0h5.87c0.01333,-0.16 0.02667,-0.31667 0.04,-0.47c0.00667,-0.15333 0.01,-0.3 0.01,-0.44v0c0,-1.14 -0.21333,-2.04667 -0.64,-2.72c-0.42667,-0.67333 -1.09333,-1.01 -2,-1.01zM150.92,66.365l-1.38,0.32l-4.19,-12.32c-0.24667,-0.09333 -0.49,-0.18667 -0.73,-0.28c-0.24,-0.1 -0.46667,-0.22 -0.68,-0.36v0v-0.7h5.54v0.67c-0.24667,0.14 -0.49333,0.27 -0.74,0.39c-0.25333,0.11333 -0.51333,0.20667 -0.78,0.28v0l2.32,7.78l0.35,1.92h0.05l0.4,-1.97l2.88,-8.8l0.8,-0.27l3.07,9.1l0.48,1.94h0.05l0.4,-1.94l2.06,-7.76c-0.2,-0.04 -0.42667,-0.11333 -0.68,-0.22c-0.26,-0.10667 -0.52333,-0.24667 -0.79,-0.42v0v-0.7h4.53v0.7c-0.37333,0.24667 -0.88,0.46 -1.52,0.64v0l-3.78,12l-1.42,0.32l-2.64,-7.55l-0.5,-2.21h-0.08l-0.62,2.21zM171.48,63.325v0c0,-0.5 -0.15333,-0.92333 -0.46,-1.27c-0.31333,-0.34667 -0.71,-0.67 -1.19,-0.97c-0.48,-0.30667 -0.99,-0.6 -1.53,-0.88c-0.54667,-0.28667 -1.06,-0.62 -1.54,-1c-0.48,-0.38667 -0.87333,-0.82667 -1.18,-1.32c-0.31333,-0.5 -0.47,-1.11333 -0.47,-1.84v0c0,-0.48 0.11,-0.92667 0.33,-1.34c0.22667,-0.40667 0.52667,-0.75667 0.9,-1.05c0.37333,-0.29333 0.80667,-0.52333 1.3,-0.69c0.5,-0.17333 1.03333,-0.26 1.6,-0.26v0c0.96,0 1.74667,0.05333 2.36,0.16c0.61333,0.10667 1.20667,0.26 1.78,0.46v0c-0.07333,0.56667 -0.16,1.14 -0.26,1.72c-0.09333,0.57333 -0.23,1.16333 -0.41,1.77v0h-0.67l-1.01,-2.72c-0.21333,-0.08667 -0.45333,-0.14333 -0.72,-0.17c-0.26667,-0.02667 -0.54333,-0.04 -0.83,-0.04v0c-0.32,0 -0.6,0.05667 -0.84,0.17c-0.24,0.11333 -0.44333,0.26 -0.61,0.44c-0.16667,0.18 -0.29667,0.38333 -0.39,0.61c-0.08667,0.23333 -0.13,0.46667 -0.13,0.7v0c0,0.48 0.15667,0.89333 0.47,1.24c0.30667,0.34667 0.7,0.66667 1.18,0.96c0.48,0.29333 0.99333,0.58 1.54,0.86c0.54,0.28667 1.05,0.60667 1.53,0.96c0.48,0.36 0.87667,0.77333 1.19,1.24c0.30667,0.47333 0.46,1.04 0.46,1.7v0c0,0.6 -0.12667,1.14 -0.38,1.62c-0.26,0.48 -0.61667,0.89 -1.07,1.23c-0.45333,0.34 -0.97667,0.60333 -1.57,0.79c-0.6,0.18667 -1.23667,0.28 -1.91,0.28v0c-0.76667,0 -1.47,-0.06667 -2.11,-0.2c-0.64,-0.13333 -1.30667,-0.32667 -2,-0.58v0c0.04,-0.64 0.12,-1.25667 0.24,-1.85c0.12667,-0.59333 0.28667,-1.16667 0.48,-1.72v0h0.67l1.17,2.91c0.2,0.14 0.43667,0.22 0.71,0.24c0.27333,0.01333 0.52667,0.02 0.76,0.02v0c0.78,0 1.41,-0.21333 1.89,-0.64c0.48,-0.42667 0.72,-0.94 0.72,-1.54z"></path></g></g></svg>